# staged watertight mesh for tactile preprocessing
v -1.65575278 -2.17929792 -1.60162926
v 1.50541127 -2.17929792 -2.63491702
v 1.50541127 -2.17929792 -1.60162926
v -1.65575278 -2.17929792 -2.63491702
v 1.50541127 -2.17929792 1.64023769
v 2.63491702 -2.17929792 -1.60162926
v 2.63491702 -2.17929792 1.64023769
v -1.65575278 -2.17929792 1.64023769
v -2.63491702 -2.17929792 -1.61227357
v -2.63491702 -2.17929792 1.64023769
v -1.65575278 -6.03900003 -2.63491702
v -1.65575278 -6.03900003 -1.60162926
v -2.63491702 -1.21034729 -2.63491702
v -2.63491702 -6.03900003 -2.63491702
v 2.63491702 -6.03900003 -2.63491702
v 1.50541127 -6.03900003 -2.63491702
v 2.63491702 -1.21034729 -2.63491702
v 1.50541127 -6.03900003 -1.60162926
v -2.63491702 -6.03900003 2.63491702
v -2.63491702 -6.03900003 1.64023769
v -2.63491702 -1.21034729 2.63491702
v -2.63491702 -6.03900003 -1.60162926
v 2.62427258 -6.03900003 -1.60162926
v 2.63491702 -1.21034729 2.63491702
v 2.63491702 -6.03900003 1.64023769
v 2.63491702 -6.03900003 2.63491702
v 1.50541127 -6.03900003 1.64023769
v -1.65575278 -2.17929792 2.63491702
v 1.50541127 -2.17929792 2.63491702
v -1.65575278 -6.03900003 1.64023769
v 1.50541127 -6.03900003 2.63491702
v 2.63491702 4.58603573 2.63491702
v 1.99759793 1.9705565 2.63491702
v 2.63491702 1.9705565 2.63491702
v 1.35008585 1.9705565 2.63491702
v 0.240556002 1.9705565 2.63491702
v -0.379135489 1.9705565 2.63491702
v -1.56483603 1.9705565 2.63491702
v -2.15845037 1.9705565 2.63491702
v -2.63491702 1.9705565 2.63491702
v -2.63491702 4.58603573 2.63491702
v 2.31983614 5.00318003 2.63491702
v -2.31984639 5.00318003 2.63491702
v 1.93945479 5.36176062 2.63491702
v -1.93946481 5.36176062 2.63491702
v 1.50448823 5.65166616 2.63491702
v -1.50448811 5.65166616 2.63491702
v 1.0271399 5.86483669 2.63491702
v -1.02716029 5.86483669 2.63491702
v 0.520904601 5.9951725 2.63491702
v -0.520924866 5.9951725 2.63491702
v -5.02821968e-06 6.03900003 2.63491702
v -1.65575278 -6.03900003 2.63491702
v 1.99759793 -0.644984305 2.63491702
v 1.35008585 -0.644984305 2.63491702
v -2.22246909 4.14932632 1.64023769
v -1.97691429 4.54567432 1.64023769
v -2.22246909 3.84384394 1.64023769
v 0.240556002 -0.644984305 2.63491702
v -0.379135489 -0.644984305 2.63491702
v -1.56483603 -0.644984305 2.63491702
v -2.15845037 -0.644984305 2.63491702
v -1.66272581 4.89016485 1.64023769
v 1.99759793 -0.644984305 1.64023769
v 1.99759793 1.9705565 1.64023769
v 2.63491702 1.9705565 1.64023769
v 2.63491702 4.58603573 1.64023769
v 2.31983614 5.00318003 1.64023769
v 1.93945479 5.36176062 1.64023769
v 1.50448823 5.65166616 1.64023769
v 1.0271399 5.86483669 1.64023769
v 0.520904601 5.9951725 1.64023769
v -5.02821968e-06 6.03900003 1.64023769
v -0.520924866 5.9951725 1.64023769
v -1.02716029 5.86483669 1.64023769
v -1.50448811 5.65166616 1.64023769
v -1.93946481 5.36176062 1.64023769
v -2.31984639 5.00318003 1.64023769
v -2.63491702 4.58603573 1.64023769
v -2.63491702 1.9705565 1.64023769
v -2.15845037 1.9705565 1.64023769
v -2.15845037 -0.644984305 1.64023769
v 1.35008585 1.9705565 1.64023769
v 1.35008585 -0.644984305 1.64023769
v -1.56483603 1.9705565 1.64023769
v -0.379135489 1.9705565 1.64023769
v 0.240556002 1.9705565 1.64023769
v -1.29059911 5.17112827 1.64023769
v -0.873188555 5.3789053 1.64023769
v -0.424706608 5.50649214 1.64023769
v 0.0395774543 5.54952097 1.64023769
v 2.30162406 3.84384394 1.64023769
v 2.30162406 4.14932632 1.64023769
v 2.05606914 4.54567432 1.64023769
v 1.74188066 4.89016485 1.64023769
v 1.36974382 5.17112827 1.64023769
v 0.952333212 5.3789053 1.64023769
v 0.503861547 5.50649214 1.64023769
v -1.56483603 -0.655628562 1.64023769
v 0.240556002 -0.655628562 1.64023769
v -0.379135489 -0.644984305 1.64023769
f 1 2 3
f 2 1 4
f 5 6 7
f 6 5 3
f 3 5 8
f 3 8 1
f 1 8 9
f 9 8 10
f 1 11 4
f 11 1 12
f 13 11 14
f 11 13 4
f 4 13 2
f 2 15 16
f 15 2 17
f 17 2 13
f 18 2 16
f 2 18 3
f 19 10 20
f 10 19 21
f 22 13 14
f 13 22 9
f 13 9 21
f 21 9 10
f 1 22 12
f 22 1 9
f 6 18 23
f 18 6 3
f 17 6 15
f 6 17 24
f 6 24 7
f 7 24 25
f 25 24 26
f 23 15 6
f 5 25 27
f 25 5 7
f 28 5 29
f 5 28 8
f 10 30 20
f 30 10 8
f 22 11 12
f 11 22 14
f 18 15 23
f 15 18 16
f 24 31 26
f 31 24 29
f 29 24 28
f 32 33 34
f 33 32 35
f 35 32 36
f 36 32 37
f 37 32 38
f 38 32 39
f 39 32 40
f 40 32 41
f 41 32 42
f 41 42 43
f 43 42 44
f 43 44 45
f 45 44 46
f 45 46 47
f 47 46 48
f 47 48 49
f 49 48 50
f 49 50 51
f 51 50 52
f 28 19 53
f 19 28 21
f 21 28 24
f 21 24 54
f 54 55 21
f 56 57 58
f 55 59 21
f 59 60 21
f 60 61 21
f 62 21 61
f 62 61 38
f 57 63 58
f 62 38 39
f 36 60 59
f 60 36 37
f 33 55 54
f 55 33 35
f 19 30 53
f 30 19 20
f 31 25 26
f 25 31 27
f 31 5 27
f 5 31 29
f 28 30 8
f 30 28 53
f 33 64 65
f 64 33 54
f 33 66 34
f 66 33 65
f 32 66 67
f 66 32 34
f 42 67 68
f 67 42 32
f 69 42 68
f 42 69 44
f 70 44 69
f 44 70 46
f 71 46 70
f 46 71 48
f 72 48 71
f 48 72 50
f 73 50 72
f 50 73 52
f 74 52 73
f 52 74 51
f 75 51 74
f 51 75 49
f 76 49 75
f 49 76 47
f 77 47 76
f 47 77 45
f 78 45 77
f 45 78 43
f 41 78 79
f 78 41 43
f 40 79 80
f 79 40 41
f 40 81 39
f 81 40 80
f 62 81 82
f 81 62 39
f 83 64 84
f 64 83 65
f 79 81 80
f 81 79 85
f 85 79 58
f 85 58 86
f 86 58 87
f 87 58 83
f 83 58 65
f 65 58 66
f 58 79 56
f 56 79 57
f 57 79 63
f 63 79 78
f 63 78 88
f 88 78 77
f 88 77 89
f 89 77 76
f 89 76 90
f 90 76 91
f 66 92 67
f 92 66 58
f 67 92 93
f 67 93 94
f 67 94 95
f 67 95 68
f 68 95 96
f 68 96 69
f 69 96 97
f 69 97 70
f 70 97 98
f 70 98 91
f 70 91 76
f 70 76 75
f 70 75 71
f 71 75 72
f 72 75 74
f 72 74 73
f 63 88 58
f 82 81 99
f 99 81 85
f 55 83 84
f 83 55 35
f 36 83 35
f 83 36 87
f 86 100 101
f 100 86 87
f 38 86 37
f 86 38 85
f 38 99 85
f 99 38 61
f 36 100 87
f 100 36 59
f 60 86 101
f 86 60 37
f 88 89 58
f 89 90 58
f 90 91 58
f 91 98 58
f 98 97 58
f 97 96 58
f 96 95 58
f 95 92 58
f 95 94 92
f 94 93 92
f 21 62 82
f 13 21 82
f 13 82 17
f 82 99 17
f 61 60 101
f 99 61 101
f 99 101 17
f 101 100 17
f 59 55 84
f 100 59 84
f 100 84 17
f 84 64 17
f 64 24 17
f 64 54 24
