# staged watertight mesh for tactile preprocessing
v 5.35290956 -5.67452335 0.674698532
v 5.44054556 -5.67452335 3.56678772
v 5.5871129 -5.67452335 2.1149919
v 4.92322111 -5.67452335 4.93121767
v 4.75392962 -5.67452335 -0.655894935
v 4.07041502 -5.67452335 6.11524391
v 3.83095098 -5.67452335 -1.78612185
v 2.94016814 -5.67452335 7.03822327
v 2.64694452 -5.67452335 -2.63892794
v 1.60959458 -5.67452335 7.63720226
v 1.2824949 -5.67452335 -3.15625238
v 0.169301033 -5.67452335 7.8714056
v -0.169300944 -5.67452335 -3.30281949
v -1.28252459 -5.67452335 7.72483921
v -1.60959446 -5.67452335 -3.06861639
v -2.6469245 -5.67452335 7.20751429
v -2.9401679 -5.67452335 -2.46963692
v -3.83095098 -5.67452335 6.35468769
v -4.07041502 -5.67452335 -1.54665792
v -4.75392962 -5.67452335 5.22446108
v -4.92322111 -5.67452335 -0.362651289
v -5.35290909 -5.67452335 3.89386773
v -5.44054508 -5.67452335 1.00176835
v -5.5871129 -5.67452335 2.45359421
v 5.5871129 5.99723339 2.1149621
v 5.35290956 5.99723339 0.674698532
v 5.44054556 5.99723339 3.56678772
v 4.75392962 5.99723339 -0.655894935
v 4.92322111 5.99723339 4.93121767
v 5.10160351 5.99723339 -0.870924294
v 3.83095098 5.99723339 -1.78612185
v 5.28326702 5.99723339 5.12480307
v 5.74437094 5.99723339 0.556977034
v 4.11111259 5.99723339 -2.08377624
v 4.07041502 5.99723339 6.11524391
v 5.8384285 5.99723339 3.66059518
v 4.36806965 5.99723339 6.39540529
v 5.99570751 5.99723339 2.10259986
v 2.84050989 5.99723339 -2.99897385
v 2.94016814 5.99723339 7.03822327
v 2.64694452 5.99723339 -2.63892794
v 1.60959458 5.99723339 7.63720226
v 3.15521717 5.99723339 7.38586617
v 1.376302 5.99723339 -3.55413556
v 1.7272861 5.99723339 8.02866459
v 1.2824949 5.99723339 -3.15625238
v 0.169301033 5.99723339 7.8714056
v 0.181693286 5.99723339 8.28000069
v -0.181693226 5.99723339 -3.7114141
v -0.169300944 5.99723339 -3.30281949
v -1.28252459 5.99723339 7.72483921
v -1.37630188 5.99723339 8.12272167
v 5.22969723 -5.87591076 3.51710892
v 5.14548159 -5.87591076 0.737089992
v 5.37057304 -5.87591076 2.12154341
v 4.73242617 -5.87591076 4.82864904
v 4.56969595 -5.87591076 -0.5419541
v 3.91266608 -5.87591076 5.96678686
v 3.68249393 -5.87591076 -1.62837303
v -1.60959446 5.99723339 -3.06861639
v 2.82624722 -5.87591076 6.85396957
v 2.54435563 -5.87591076 -2.44816303
v -1.72731614 5.99723339 -3.460078
v -2.6469245 5.99723339 7.20751429
v 1.5472033 -5.87591076 7.42974472
v -2.9401679 5.99723339 -2.46963692
v -2.84050989 5.99723339 7.56755972
v 1.23281562 -5.87591076 -2.94540405
v 0.162749827 -5.87591076 7.65486622
v -3.15518761 5.99723339 -2.81731033
v -3.83095098 5.99723339 6.35468769
v -0.162749738 -5.87591076 -3.0862999
v -1.2328155 -5.87591076 7.5139904
v -4.07041502 5.99723339 -1.54665792
v -4.11114216 5.99723339 6.65236282
v -1.54720306 -5.87591076 -2.86118865
v -2.54435563 -5.87591076 7.01671886
v -4.36806917 5.99723339 -1.82684922
v -4.75392962 5.99723339 5.22446108
v -2.82624698 -5.87591076 -2.28540325
v -3.68249393 -5.87591076 6.1969595
v -4.92322111 5.99723339 -0.362651289
v -5.10160351 5.99723339 5.43951035
v -3.91266608 -5.87591076 -1.39820087
v -5.28326702 5.99723339 -0.556216717
v -5.35290909 5.99723339 3.89386773
v -4.56969595 -5.87591076 5.11054039
v -5.44054508 5.99723339 1.00176835
v -5.74437094 5.99723339 4.01157951
v -4.73242617 -5.87591076 -0.260062516
v -5.8384285 5.99723339 0.90799129
v -5.5871129 5.99723339 2.45359421
v -5.14548159 -5.87591076 3.83149624
v -5.99570751 5.99723339 2.46596646
v -5.22969723 -5.87591076 1.05147743
v -5.37057304 -5.87591076 2.44704294
v 5.10160351 -5.99723339 -0.870924294
v 4.11111259 -5.99723339 -2.08377624
v 5.8384285 -5.99723339 3.66059518
v 5.28326702 -5.99723339 5.12480307
v 5.99570751 -5.99723339 2.10259986
v 5.74437094 -5.99723339 0.556977034
v 4.36806965 -5.99723339 6.39540529
v 5.37057304 -5.99723339 2.12154341
v 4.56969595 -5.99723339 -0.5419541
v 2.84050989 -5.99723339 -2.99897385
v 3.15521717 -5.99723339 7.38586617
v 5.22969723 -5.99723339 3.51710892
v 5.14548159 -5.99723339 0.737089992
v 3.68249393 -5.99723339 -1.62837303
v 1.7272861 -5.99723339 8.02866459
v 3.91266608 -5.99723339 5.96678686
v 4.73242617 -5.99723339 4.82864904
v 2.54435563 -5.99723339 -2.44816303
v 1.376302 -5.99723339 -3.55413556
v 0.181693286 -5.99723339 8.28000069
v 2.82624722 -5.99723339 6.85396957
v -1.37630188 -5.99723339 8.12272167
v 1.5472033 -5.99723339 7.42974472
v 1.23281562 -5.99723339 -2.94540405
v -0.181693226 -5.99723339 -3.7114141
v 0.162749827 -5.99723339 7.65486622
v -2.84050989 -5.99723339 7.56755972
v -1.2328155 -5.99723339 7.5139904
v -0.162749738 -5.99723339 -3.0862999
v -1.72731614 -5.99723339 -3.460078
v -2.54435563 -5.99723339 7.01671886
v -1.54720306 -5.99723339 -2.86118865
v -4.11114216 -5.99723339 6.65236282
v -3.68249393 -5.99723339 6.1969595
v -2.82624698 -5.99723339 -2.28540325
v -3.15518761 -5.99723339 -2.81731033
v -4.56969595 -5.99723339 5.11054039
v -3.91266608 -5.99723339 -1.39820087
v -4.36806917 -5.99723339 -1.82684922
v -5.10160351 -5.99723339 5.43951035
v -5.28326702 -5.99723339 -0.556216717
v -5.14548159 -5.99723339 3.83149624
v -4.73242617 -5.99723339 -0.260062516
v -5.74437094 -5.99723339 4.01157951
v -5.8384285 -5.99723339 0.90799129
v -5.22969723 -5.99723339 1.05147743
v -5.37057304 -5.99723339 2.44704294
v -5.99570751 -5.99723339 2.46596646
v -0.932130575 3.33819604 -4.24732208
v -0.89654398 2.80544853 -3.3100009
v -0.824650824 3.21465302 -4.2711668
v -1.00530398 2.92185974 -3.26951337
v -0.725402713 2.70546007 -3.35013819
v -0.75125742 3.20095086 -5.25226641
v -0.969697416 3.4707303 -4.22714853
v 0.945663095 2.80544853 -3.43708396
v -0.654569745 3.1085937 -4.29698133
v 0.778762519 2.70546007 -3.45386696
v -0.856106639 3.32397318 -5.26373816
v -1.04420102 3.04680252 -3.23142624
v 1.04941213 2.92185974 -3.41123915
v -0.503482103 2.62875605 -3.38715482
v 0.560112536 2.62875605 -3.4605484
v -0.682494879 2.78062367 -6.17125463
v -0.583436728 3.09530139 -5.24778605
v -0.934781075 3.60326433 -4.21192551
v -0.89083302 3.45598722 -5.28140163
v 0.849585533 3.1085937 -4.40071011
v 1.12256539 3.33819604 -4.38906813
v -0.433479309 3.02721882 -4.32302618
v 0.630105317 3.02721882 -4.3963995
v -0.784873545 2.88852334 -6.21577215
v -1.01061487 3.17172527 -3.19835043
v 1.08300829 3.04680252 -3.37815332
v 1.01755631 3.21465302 -4.39821959
v 1.15748191 3.4707303 -4.37385511
v -0.245934978 2.58053708 -3.41859055
v 0.304625809 2.58053708 -3.45656753
v 0.37409848 2.97603941 -4.3855176
v -0.626574636 2.00364184 -6.91884136
v -0.516804516 2.68796682 -6.13837862
v -0.364076585 3.01425672 -5.25058556
v -0.829771876 3.72678709 -4.20277405
v -0.8530761 3.58799171 -5.30408525
v -0.816949427 3.00432467 -6.26892185
v 0.920698583 3.09530139 -5.35153437
v 0.699518025 3.01425672 -5.32394886
v 1.09094965 3.20095086 -5.37933922
v 1.19862938 3.32397318 -5.40544462
v -0.176452249 2.97603941 -4.34754086
v 0.442421019 2.96328712 -5.29846478
v -0.726942956 2.0836463 -6.99026442
v -0.906835854 3.28815675 -3.17253566
v 1.04410112 3.17172527 -3.34008622
v 1.11993504 3.60326433 -4.35365152
v 1.23634624 3.45598722 -5.42814827
v 0.0296754688 2.56408405 -3.44227505
v 0.0990081578 2.95859623 -4.36887455
v 0.166930601 2.94591403 -5.27682066
v -0.590117931 0.9624511 -7.40618038
v -0.462614626 1.93499923 -6.86288071
v -0.299074709 2.61687398 -6.11939478
v -0.108139746 2.96328712 -5.26048803
v -0.739955306 3.38811517 -3.15571237
v 0.935371161 3.28815675 -3.29959869
v -0.745426416 3.71099401 -5.3302002
v -0.776552081 3.120116 -6.32706261
v -0.756858468 2.16943192 -7.07225943
v 0.987330735 2.68796682 -6.24213743
v 0.764509976 2.61687398 -6.19277811
v 0.506392717 2.57216549 -6.15357161
v 1.15971231 2.78062367 -6.29831791
v 1.26984251 2.88852334 -6.35747862
v 0.230552241 2.55692267 -6.12728596
v -0.689156115 1.00495899 -7.49514627
v -0.6618011 3.83283639 -4.2002635
v 1.01243532 3.72678709 -4.32983732
v 1.20161986 3.58799171 -5.44581175
v 1.31022978 3.00432467 -6.41562939
v -0.0441580452 2.57216549 -6.11560392
v -0.577465653 -0.219255164 -7.5753417
v -0.427268147 0.925954461 -7.33518744
v -0.246215045 1.88232934 -6.8262043
v -0.521305323 3.46482873 -3.14907122
v 0.764199853 3.38811517 -3.25944138
v -0.66642195 3.22799563 -6.38623333
v -0.575185299 3.81667352 -5.35800505
v 0.842354238 3.83283639 -4.30402279
v -0.714280725 2.25523758 -7.1592555
v -0.717671275 1.05058718 -7.5959549
v 1.21563244 2.00364184 -7.04592419
v 1.04154074 1.93499923 -6.96662951
v 0.817399621 1.88232934 -6.89954758
v 0.558422208 1.84921336 -6.84924841
v 1.32780302 2.0836463 -7.13198996
v 0.0078714788 1.84921336 -6.81127167
v -0.67604363 -0.219255164 -7.67036867
v -0.415015936 -0.219255164 -7.49910784
v -0.442350924 3.91424131 -4.20460463
v 0.928950071 3.81667352 -5.46173429
v 1.09678078 3.71099401 -5.4572835
v 1.27816403 3.120116 -6.46879864
v 0.282321721 1.83790135 -6.8191433
v 1.37035096 2.16943192 -7.21898603
v -0.590117931 -1.4009614 -7.40618038
v -0.427268147 -1.36445475 -7.33518744
v -0.211728707 0.897959352 -7.28694868
v -0.199776515 -0.219255164 -7.44685793
v -0.265818626 3.51303792 -3.15303159
v 0.542279303 3.46482873 -3.22241473
v 0.621263742 3.91424131 -4.2779479
v -0.602140129 2.3351922 -7.24535084
v -0.494070411 3.32068253 -6.44241381
v -0.35397473 3.89771843 -5.38558054
v 0.709609866 3.89771843 -5.45896435
v -0.673703253 1.09617567 -7.70175457
v -0.70406884 -0.219255164 -7.77772856
v 1.25210917 0.9624511 -7.53326368
v 1.07688713 0.925954461 -7.43894625
v 0.851865947 0.897959352 -7.36029196
v 0.592348456 0.880316079 -7.30274153
v 1.36553991 1.00495899 -7.63685274
v 0.0417876914 0.880316079 -7.26476479
v -0.689156115 -1.44345915 -7.49514627
v -0.211728707 -1.33645976 -7.28694868
v -0.186314046 3.96541047 -4.21545649
v -0.428048283 2.40384483 -7.32461596
v 1.01011491 3.32068253 -6.54619265
v 0.792365015 3.39176559 -6.56515646
v 1.1757853 3.22799563 -6.51328707
v 1.34043527 2.25523758 -7.30098104
v -0.717671275 -1.48906744 -7.5959549
v 0.316047877 0.874345005 -7.27014542
v 1.40950799 1.05058718 -7.74266195
v -0.726942956 -2.52212667 -6.99026442
v -0.462614626 -2.37352943 -6.86288071
v -0.246215045 -2.32082987 -6.8262043
v 0.0535698421 -0.219255164 -7.42216349
v 0.0417876914 -1.31882632 -7.26476479
v 0.00912171137 3.52949095 -3.16732478
v 0.284732133 3.51303792 -3.19100904
v 0.364236683 3.96541047 -4.25343323
v 0.453673065 3.94865775 -5.44903231
v -0.560252488 1.13867331 -7.80536318
v -0.385030419 1.17517996 -7.89968061
v -0.203907281 2.4565146 -7.39169788
v -0.271229625 3.39176559 -6.49178267
v -0.0968776792 3.94865775 -5.41105556
v 0.537448406 3.43647408 -6.56894732
v -0.659620762 -0.219255164 -7.89005899
v -0.673703253 -1.53467596 -7.70175457
v 1.26474142 -0.219255164 -7.70241404
v 1.08913934 -0.219255164 -7.60285616
v 0.863838136 -0.219255164 -7.52022123
v 0.604130626 -0.219255164 -7.46013021
v 1.37864232 -0.219255164 -7.81209469
v 0.327760041 -0.219255164 -7.42668438
v -0.626574636 -2.44217181 -6.91884136
v -0.756858468 -2.6079123 -7.07225943
v 0.0078714788 -2.28771377 -6.81127167
v 0.0887762904 3.98286414 -4.23211956
v -0.16000925 1.20317519 -7.9783349
v 1.076087 2.40384483 -7.42837429
v 0.859687388 2.4565146 -7.46506071
v 0.605620861 2.48965049 -7.47997379
v 1.24006689 2.3351922 -7.3724041
v 1.38099289 1.09617567 -7.84348011
v -0.714280725 -2.69372797 -7.1592555
v 1.42314041 -0.219255164 -7.92443514
v -0.784873545 -3.32703376 -6.21577215
v -0.816949427 -3.44282532 -6.26892185
v -0.516804516 -3.12646699 -6.13837862
v -0.299074709 -3.05538416 -6.11939478
v -0.0441580452 -3.01067615 -6.11560392
v 0.316047877 -1.31285524 -7.27014542
v 0.282321721 -2.27641153 -6.8191433
v 0.178592727 3.9660511 -5.4326992
v 0.262738109 3.45169663 -6.55728483
v -0.545699835 -0.219255164 -7.99973917
v -0.370097697 -0.219255164 -8.09929752
v 0.0550701208 2.48965049 -7.44199657
v 0.0994882435 1.22080839 -8.03588486
v -0.0131123578 3.43647408 -6.5309701
v 0.331170678 2.5009625 -7.47213268
v -0.602140129 -2.77368283 -7.24535084
v 1.07688713 -1.36445475 -7.43894625
v 1.25210917 -1.4009614 -7.53326368
v 0.851865947 -1.33645976 -7.36029196
v 0.592348456 -1.31882632 -7.30274153
v 1.40950799 -1.48906744 -7.74266195
v -0.682494879 -3.21913409 -6.17125463
v -0.776552081 -3.55862617 -6.32706261
v 0.230552241 -2.9954133 -6.12728596
v -0.144786462 -0.219255164 -8.18193245
v 1.11910486 1.17517996 -8.0034399
v 0.903585434 1.20317519 -8.05167866
v 0.65004909 1.22080839 -8.07386208
v 0.375788808 1.22677946 -8.06848145
v 1.28195477 1.13867331 -7.93241692
v -0.560252488 -1.57720375 -7.80536318
v 1.39509535 -0.219255164 -8.03178501
v -0.66642195 -3.66652584 -6.38623333
v 1.36553991 -1.44345915 -7.63685274
v 1.38099289 -1.53467596 -7.84348011
v -0.856106639 -3.76246333 -5.26373816
v -0.89083302 -3.89448786 -5.28140163
v -0.8530761 -4.02650213 -5.30408525
v -0.583436728 -3.53381181 -5.24778605
v -0.364076585 -3.45273685 -5.25058556
v -0.108139746 -3.40179777 -5.26048803
v 0.166930601 -3.38442469 -5.27682066
v 0.558422208 -2.28771377 -6.84924841
v -0.385030419 -1.61368048 -7.89968061
v 0.114921071 -0.219255164 -8.24202347
v 1.29648733 -0.219255164 -8.12682247
v -0.428048283 -2.84235525 -7.32461596
v 1.04154074 -2.37352943 -6.96662951
v 0.817399621 -2.32082987 -6.89954758
v 1.32780302 -2.52212667 -7.13198996
v 1.37035096 -2.6079123 -7.21898603
v 1.34043527 -2.69372797 -7.30098104
v -0.75125742 -3.63946104 -5.25226641
v -0.745426416 -4.14952421 -5.3302002
v 0.442421019 -3.40179777 -5.29846478
v 0.506392717 -3.01067615 -6.15357161
v -0.16000925 -1.64167547 -7.9783349
v 1.13406754 -0.219255164 -8.20305634
v 0.918808222 -0.219255164 -8.25529575
v 0.665471852 -0.219255164 -8.28000069
v 0.391261637 -0.219255164 -8.27546883
v -0.494070411 -3.7591629 -6.44241381
v 1.21563244 -2.44217181 -7.04592419
v 1.24006689 -2.77368283 -7.3724041
v -0.932130575 -3.77668619 -4.24732208
v -0.969697416 -3.90924072 -4.22714853
v -0.934781075 -4.04179478 -4.21192551
v -0.829771876 -4.16528749 -4.20277405
v -0.575185299 -4.25515366 -5.35800505
v -0.654569745 -3.54710412 -4.29698133
v -0.433479309 -3.46572948 -4.32302618
v -0.176452249 -3.41455007 -4.34754086
v 0.0990081578 -3.39710689 -4.36887455
v 0.37409848 -3.41455007 -4.3855176
v 0.0994882435 -1.65931857 -8.03588486
v 1.28195477 -1.57720375 -7.93241692
v -0.203907281 -2.89502478 -7.39169788
v 0.987330735 -3.12646699 -6.24213743
v 0.764509976 -3.05538416 -6.19277811
v 1.26984251 -3.32703376 -6.35747862
v 1.31022978 -3.44282532 -6.41562939
v 1.27816403 -3.55862617 -6.46879864
v 1.1757853 -3.66652584 -6.51328707
v -0.824650824 -3.6531837 -4.2711668
v -0.6618011 -4.2713666 -4.2002635
v 0.699518025 -3.45273685 -5.32394886
v 0.630105317 -3.46572948 -4.3963995
v 1.11910486 -1.61368048 -8.0034399
v 0.903585434 -1.64167547 -8.05167866
v 0.65004909 -1.65931857 -8.07386208
v -0.35397473 -4.33621836 -5.38558054
v -0.271229625 -3.83027577 -6.49178267
v 1.15971231 -3.21913409 -6.29831791
v 1.076087 -2.84235525 -7.42837429
v -0.89654398 -3.24394894 -3.3100009
v -1.00530398 -3.36038995 -3.26951337
v -1.04420102 -3.48531294 -3.23142624
v -1.01061487 -3.61022568 -3.19835043
v -0.739955306 -3.82662535 -3.15571237
v -0.442350924 -4.35274172 -4.20460463
v -0.725402713 -3.14397025 -3.35013819
v -0.503482103 -3.06728649 -3.38715482
v -0.245934978 -3.01904774 -3.41859055
v 0.0296754688 -3.00259471 -3.44227505
v 0.304625809 -3.01904774 -3.45656753
v 0.560112536 -3.06728649 -3.4605484
v 0.375788808 -1.66530991 -8.06848145
v 0.0550701208 -2.92816114 -7.44199657
v 1.09094965 -3.63946104 -5.37933922
v 0.920698583 -3.53381181 -5.35153437
v 1.19862938 -3.76246333 -5.40544462
v 1.23634624 -3.89448786 -5.42814827
v 1.20161986 -4.02650213 -5.44581175
v 1.09678078 -4.14952421 -5.4572835
v 1.01011491 -3.7591629 -6.54619265
v -0.906835854 -3.72666717 -3.17253566
v -0.521305323 -3.90332937 -3.14907122
v 0.849585533 -3.54710412 -4.40071011
v 0.778762519 -3.14397025 -3.45386696
v 0.859687388 -2.89502478 -7.46506071
v 0.605620861 -2.92816114 -7.47997379
v -0.0968776792 -4.38718796 -5.41105556
v -0.186314046 -4.40390062 -4.21545649
v -0.0131123578 -3.87496448 -6.5309701
v 1.04941213 -3.36038995 -3.41123915
v 0.945663095 -3.24394894 -3.43708396
v 1.08300829 -3.48531294 -3.37815332
v 1.04410112 -3.61022568 -3.34008622
v 0.935371161 -3.72666717 -3.29959869
v 0.764199853 -3.82662535 -3.25944138
v 0.542279303 -3.90332937 -3.22241473
v -0.265818626 -3.9515481 -3.15303159
v 0.331170678 -2.93944311 -7.47213268
v 1.01755631 -3.6531837 -4.39821959
v 1.12256539 -3.77668619 -4.38906813
v 1.15748191 -3.90924072 -4.37385511
v 1.11993504 -4.04179478 -4.35365152
v 1.01243532 -4.16528749 -4.32983732
v 0.928950071 -4.25515366 -5.46173429
v 0.792365015 -3.83027577 -6.56515646
v 0.284732133 -3.9515481 -3.19100904
v 0.537448406 -3.87496448 -6.56894732
v 0.178592727 -4.40456104 -5.4326992
v 0.0887762904 -4.4213438 -4.23211956
v 0.00912171137 -3.96800137 -3.16732478
v 0.262738109 -3.89020705 -6.55728483
v 0.842354238 -4.2713666 -4.30402279
v 0.621263742 -4.35274172 -4.2779479
v 0.364236683 -4.40390062 -4.25343323
v 0.709609866 -4.33621836 -5.45896435
v 0.453673065 -4.38718796 -5.44903231
f 1 2 3
f 2 1 4
f 4 1 5
f 4 5 6
f 6 5 7
f 6 7 8
f 8 7 9
f 8 9 10
f 10 9 11
f 10 11 12
f 12 11 13
f 12 13 14
f 14 13 15
f 14 15 16
f 16 15 17
f 16 17 18
f 18 17 19
f 18 19 20
f 20 19 21
f 20 21 22
f 22 21 23
f 22 23 24
f 2 25 3
f 3 26 1
f 4 27 2
f 25 2 27
f 25 26 3
f 28 1 26
f 1 28 5
f 27 4 29
f 26 30 28
f 31 5 28
f 6 29 4
f 32 27 29
f 25 33 26
f 28 30 34
f 5 31 7
f 28 34 31
f 29 6 35
f 36 27 32
f 32 29 37
f 33 36 38
f 31 9 7
f 31 34 39
f 40 6 8
f 6 40 35
f 37 29 35
f 9 31 41
f 31 39 41
f 8 42 40
f 43 35 40
f 37 35 43
f 41 11 9
f 41 39 44
f 42 8 10
f 45 40 42
f 43 40 45
f 11 41 46
f 41 44 46
f 10 47 42
f 45 42 48
f 46 13 11
f 46 44 49
f 47 10 12
f 48 42 47
f 13 46 50
f 46 49 50
f 12 51 47
f 48 47 52
f 53 54 55
f 54 56 57
f 57 58 59
f 50 15 13
f 50 49 60
f 51 12 14
f 52 47 51
f 54 53 56
f 57 56 58
f 59 58 61
f 59 61 62
f 15 50 60
f 60 49 63
f 14 64 51
f 52 51 64
f 62 61 65
f 60 17 15
f 60 63 66
f 64 14 16
f 52 64 67
f 68 65 69
f 62 65 68
f 17 60 66
f 66 63 70
f 16 71 64
f 67 64 71
f 72 69 73
f 68 69 72
f 66 19 17
f 66 70 74
f 71 16 18
f 67 71 75
f 76 73 77
f 72 73 76
f 19 66 74
f 74 70 78
f 20 71 18
f 75 71 79
f 80 77 81
f 76 77 80
f 82 19 74
f 74 78 82
f 71 20 79
f 75 79 83
f 80 81 84
f 19 82 21
f 82 78 85
f 22 79 20
f 83 79 86
f 84 81 87
f 88 21 82
f 82 85 88
f 79 22 86
f 83 86 89
f 84 87 90
f 21 88 23
f 88 85 91
f 24 86 22
f 89 86 92
f 90 87 93
f 92 23 88
f 88 91 92
f 23 92 24
f 86 24 92
f 92 91 89
f 89 91 94
f 90 93 95
f 95 93 96
f 33 97 30
f 30 98 34
f 32 99 36
f 37 100 32
f 36 101 38
f 38 102 33
f 97 33 102
f 98 30 97
f 98 39 34
f 99 32 100
f 101 36 99
f 100 37 103
f 102 38 101
f 104 97 102
f 97 105 98
f 39 98 106
f 107 37 43
f 102 99 100
f 99 102 101
f 37 107 103
f 108 100 103
f 97 104 109
f 102 100 104
f 97 109 105
f 98 105 110
f 98 110 106
f 106 44 39
f 111 43 45
f 43 111 107
f 112 103 107
f 104 100 108
f 108 103 113
f 104 54 109
f 109 57 105
f 105 59 110
f 106 110 114
f 44 106 115
f 116 45 48
f 45 116 111
f 117 107 111
f 113 103 112
f 112 107 117
f 108 55 104
f 113 53 108
f 54 104 55
f 57 109 54
f 59 105 57
f 59 114 110
f 106 114 115
f 115 49 44
f 48 118 116
f 119 111 116
f 117 111 119
f 112 56 113
f 61 112 117
f 55 108 53
f 53 113 56
f 114 59 62
f 115 114 120
f 49 115 121
f 118 48 52
f 122 116 118
f 119 116 122
f 65 117 119
f 56 112 58
f 112 61 58
f 117 65 61
f 62 120 114
f 115 120 121
f 121 63 49
f 52 123 118
f 122 118 124
f 69 119 122
f 119 69 65
f 120 62 68
f 121 120 125
f 63 121 126
f 123 52 67
f 127 118 123
f 124 118 127
f 73 122 124
f 122 73 69
f 68 125 120
f 121 125 128
f 121 128 126
f 126 70 63
f 67 129 123
f 127 123 130
f 77 124 127
f 124 77 73
f 125 68 72
f 72 128 125
f 126 128 131
f 70 126 132
f 129 67 75
f 130 123 129
f 81 127 130
f 127 81 77
f 128 72 76
f 76 131 128
f 126 131 132
f 132 78 70
f 83 129 75
f 130 129 133
f 133 81 130
f 131 76 80
f 132 131 134
f 78 132 135
f 129 83 136
f 133 129 136
f 81 133 87
f 80 134 131
f 132 134 135
f 137 78 135
f 89 136 83
f 133 136 138
f 138 87 133
f 134 80 84
f 135 134 139
f 78 137 85
f 135 139 137
f 136 89 140
f 138 136 140
f 87 138 93
f 90 134 84
f 134 90 139
f 141 85 137
f 137 139 142
f 94 140 89
f 138 140 143
f 143 93 138
f 95 139 90
f 85 141 91
f 137 143 141
f 139 95 142
f 137 142 143
f 140 94 144
f 141 143 140
f 93 143 96
f 144 91 141
f 96 142 95
f 142 96 143
f 91 144 94
f 141 140 144
f 30 26 33
f 27 36 25
f 33 25 36
f 145 146 147
f 146 145 148
f 149 147 146
f 150 145 147
f 151 148 145
f 152 146 148
f 147 149 153
f 154 149 146
f 145 150 155
f 153 150 147
f 148 151 156
f 155 151 145
f 154 146 152
f 152 148 157
f 158 153 149
f 159 149 154
f 160 155 150
f 150 153 161
f 162 156 151
f 157 148 156
f 151 155 163
f 152 164 154
f 165 152 157
f 153 158 166
f 159 158 149
f 154 167 159
f 155 160 168
f 161 160 150
f 166 161 153
f 156 162 169
f 163 162 151
f 157 156 170
f 168 163 155
f 164 152 171
f 167 154 164
f 152 165 171
f 157 172 165
f 173 166 158
f 174 158 159
f 175 159 167
f 176 168 160
f 160 161 177
f 161 166 178
f 179 169 162
f 170 156 169
f 162 163 180
f 172 157 170
f 163 168 181
f 171 182 164
f 164 183 167
f 165 184 171
f 172 185 165
f 166 173 186
f 174 173 158
f 159 175 174
f 167 187 175
f 168 176 188
f 177 176 160
f 178 177 161
f 186 178 166
f 169 179 189
f 180 179 162
f 170 169 190
f 181 180 163
f 170 191 172
f 188 181 168
f 182 171 184
f 183 164 182
f 187 167 183
f 184 165 185
f 185 172 192
f 193 186 173
f 173 174 193
f 194 174 175
f 195 175 187
f 196 188 176
f 176 177 197
f 177 178 198
f 178 186 199
f 179 200 189
f 201 169 189
f 179 180 202
f 190 169 201
f 191 170 190
f 180 181 203
f 191 192 172
f 181 188 204
f 184 205 182
f 182 206 183
f 183 207 187
f 185 208 184
f 192 209 185
f 186 193 194
f 174 194 193
f 175 195 194
f 187 210 195
f 188 196 211
f 197 196 176
f 198 197 177
f 199 198 178
f 194 199 186
f 200 179 212
f 201 189 200
f 203 202 180
f 202 212 179
f 213 190 201
f 190 213 191
f 204 203 181
f 192 191 214
f 211 204 188
f 205 184 208
f 206 182 205
f 207 183 206
f 210 187 207
f 208 185 209
f 209 192 215
f 199 194 195
f 216 195 210
f 217 211 196
f 196 197 218
f 197 198 219
f 198 199 216
f 212 220 200
f 201 200 221
f 202 203 222
f 212 202 223
f 201 224 213
f 213 214 191
f 203 204 225
f 214 215 192
f 204 211 226
f 227 205 208
f 228 206 205
f 229 207 206
f 230 210 207
f 209 227 208
f 215 231 209
f 195 216 199
f 210 232 216
f 211 217 233
f 196 234 217
f 219 218 197
f 234 196 218
f 216 219 198
f 220 212 235
f 221 200 220
f 224 201 221
f 225 222 203
f 222 223 202
f 223 235 212
f 236 213 224
f 214 213 237
f 226 225 204
f 215 214 238
f 233 226 211
f 205 227 228
f 206 228 229
f 207 229 230
f 210 230 239
f 227 209 231
f 231 215 240
f 232 210 239
f 219 216 232
f 241 233 217
f 242 217 234
f 218 219 243
f 218 244 234
f 235 245 220
f 221 220 246
f 221 247 224
f 222 225 248
f 223 222 249
f 235 223 250
f 213 236 237
f 224 251 236
f 237 238 214
f 225 226 252
f 238 240 215
f 226 233 253
f 254 228 227
f 255 229 228
f 256 230 229
f 257 239 230
f 231 254 227
f 240 258 231
f 239 259 232
f 232 243 219
f 233 241 260
f 217 242 241
f 234 261 242
f 244 218 243
f 261 234 244
f 245 235 262
f 246 220 245
f 247 221 246
f 251 224 247
f 252 248 225
f 263 222 248
f 222 263 249
f 249 250 223
f 250 262 235
f 264 237 236
f 265 236 251
f 238 237 266
f 253 252 226
f 240 238 267
f 233 268 253
f 228 254 255
f 229 255 256
f 230 256 257
f 239 257 269
f 254 231 258
f 258 240 270
f 259 239 269
f 243 232 259
f 241 271 260
f 268 233 260
f 272 241 242
f 273 242 261
f 243 274 244
f 244 275 261
f 262 276 245
f 246 245 277
f 246 278 247
f 247 279 251
f 248 252 280
f 248 281 263
f 282 249 263
f 250 249 283
f 262 250 284
f 237 264 266
f 236 265 264
f 251 285 265
f 266 267 238
f 252 253 286
f 267 270 240
f 287 253 268
f 288 255 254
f 289 256 255
f 290 257 256
f 291 269 257
f 292 254 258
f 270 292 258
f 293 259 269
f 274 243 259
f 271 241 294
f 295 260 271
f 260 295 268
f 241 272 294
f 242 273 272
f 261 296 273
f 275 244 274
f 296 261 275
f 276 262 297
f 277 245 276
f 278 246 277
f 279 247 278
f 285 251 279
f 286 280 252
f 281 248 280
f 298 263 281
f 249 282 283
f 263 298 282
f 283 284 250
f 284 297 262
f 299 266 264
f 300 264 265
f 301 265 285
f 267 266 302
f 253 287 286
f 270 267 303
f 268 304 287
f 255 288 289
f 254 292 288
f 256 289 290
f 257 290 291
f 269 291 293
f 292 270 305
f 259 293 274
f 294 306 271
f 271 307 295
f 304 268 295
f 308 294 272
f 309 272 273
f 310 273 296
f 274 311 275
f 275 312 296
f 297 277 276
f 277 297 278
f 278 313 279
f 279 314 285
f 280 286 315
f 315 281 280
f 316 298 281
f 317 283 282
f 318 282 298
f 284 283 319
f 297 284 313
f 266 299 302
f 264 300 299
f 265 301 300
f 285 320 301
f 302 303 267
f 287 315 286
f 303 305 270
f 321 287 304
f 288 322 289
f 292 323 288
f 289 324 290
f 290 325 291
f 291 311 293
f 326 292 305
f 311 274 293
f 306 294 327
f 307 271 306
f 328 295 307
f 295 328 304
f 294 308 327
f 272 309 308
f 273 310 309
f 296 329 310
f 312 275 311
f 329 296 312
f 313 278 297
f 314 279 313
f 320 285 314
f 281 315 316
f 298 316 330
f 283 317 319
f 282 318 317
f 330 318 298
f 319 313 284
f 331 302 299
f 332 299 300
f 333 300 301
f 334 301 320
f 303 302 335
f 315 287 336
f 305 303 337
f 287 321 336
f 304 338 321
f 322 288 323
f 324 289 322
f 323 292 339
f 325 290 324
f 311 291 325
f 292 326 339
f 305 340 326
f 327 341 306
f 306 342 307
f 307 343 328
f 338 304 328
f 344 327 308
f 345 308 309
f 346 309 310
f 347 310 329
f 325 312 311
f 348 329 312
f 313 319 314
f 319 320 314
f 336 316 315
f 349 330 316
f 320 319 317
f 334 317 318
f 318 330 350
f 302 331 335
f 299 332 331
f 300 333 332
f 301 334 333
f 317 334 320
f 351 303 335
f 303 351 337
f 340 305 337
f 321 349 336
f 338 352 321
f 323 353 322
f 322 354 324
f 355 323 339
f 324 348 325
f 356 339 326
f 357 326 340
f 341 327 358
f 342 306 341
f 343 307 342
f 359 328 343
f 328 359 338
f 327 344 358
f 308 345 344
f 309 346 345
f 310 347 346
f 329 360 347
f 312 325 348
f 329 348 361
f 316 336 349
f 330 349 362
f 350 334 318
f 362 350 330
f 363 335 331
f 364 331 332
f 365 332 333
f 366 333 334
f 335 363 351
f 351 340 337
f 349 321 352
f 352 338 367
f 353 323 368
f 354 322 353
f 348 324 354
f 323 355 368
f 339 356 355
f 326 357 356
f 340 369 357
f 358 370 341
f 341 371 342
f 342 372 343
f 343 373 359
f 374 338 359
f 375 358 344
f 376 344 345
f 377 345 346
f 378 346 347
f 360 329 361
f 379 347 360
f 354 361 348
f 352 362 349
f 334 350 366
f 350 362 380
f 331 364 363
f 332 365 364
f 333 366 365
f 363 381 351
f 340 351 381
f 338 374 367
f 367 382 352
f 368 383 353
f 353 384 354
f 385 368 355
f 386 355 356
f 387 356 357
f 369 340 381
f 388 357 369
f 370 358 389
f 371 341 370
f 372 342 371
f 373 343 372
f 390 359 373
f 359 390 374
f 358 375 389
f 344 376 375
f 345 377 376
f 346 378 377
f 347 379 378
f 361 391 360
f 360 392 379
f 361 354 384
f 362 352 382
f 380 366 350
f 382 380 362
f 364 393 363
f 365 394 364
f 366 395 365
f 381 363 393
f 396 367 374
f 382 367 397
f 383 368 398
f 384 353 383
f 368 385 398
f 355 386 385
f 356 387 386
f 357 388 387
f 393 369 381
f 399 388 369
f 400 370 389
f 401 371 370
f 402 372 371
f 403 373 372
f 373 404 390
f 405 374 390
f 406 389 375
f 407 375 376
f 408 376 377
f 409 377 378
f 410 378 379
f 391 361 384
f 392 360 391
f 411 379 392
f 366 380 412
f 380 382 413
f 393 364 394
f 394 365 395
f 395 366 412
f 367 396 397
f 374 405 396
f 397 413 382
f 414 383 398
f 415 384 383
f 416 398 385
f 417 385 386
f 418 386 387
f 419 387 388
f 369 393 399
f 388 399 420
f 370 400 401
f 389 406 400
f 371 401 402
f 372 402 403
f 373 403 421
f 404 373 421
f 422 390 404
f 390 422 405
f 375 407 406
f 376 408 407
f 377 409 408
f 378 410 409
f 379 411 410
f 384 415 391
f 391 423 392
f 392 424 411
f 413 412 380
f 394 399 393
f 395 425 394
f 412 426 395
f 427 397 396
f 428 396 405
f 413 397 429
f 383 414 415
f 398 416 414
f 385 417 416
f 386 418 417
f 387 419 418
f 420 419 388
f 425 420 399
f 430 401 400
f 431 400 406
f 432 402 401
f 433 403 402
f 434 421 403
f 435 404 421
f 436 422 404
f 437 405 422
f 424 406 407
f 411 407 408
f 410 408 409
f 411 408 410
f 423 391 415
f 424 392 423
f 424 407 411
f 412 413 438
f 399 394 425
f 425 395 426
f 426 412 438
f 397 427 429
f 396 428 427
f 405 437 428
f 429 438 413
f 439 415 414
f 440 414 416
f 441 416 417
f 442 417 418
f 443 418 419
f 419 420 444
f 420 425 445
f 432 401 430
f 430 400 431
f 431 406 424
f 433 402 432
f 434 403 433
f 435 421 434
f 436 404 435
f 446 422 436
f 446 437 422
f 415 439 423
f 423 431 424
f 426 445 425
f 438 447 426
f 448 429 427
f 449 427 428
f 450 428 437
f 438 429 451
f 414 440 439
f 416 441 440
f 417 442 441
f 418 443 442
f 444 443 419
f 445 444 420
f 430 441 432
f 431 440 430
f 432 442 433
f 433 443 434
f 434 452 435
f 435 453 436
f 436 454 446
f 437 446 450
f 431 423 439
f 445 426 447
f 447 438 451
f 429 448 451
f 427 449 448
f 428 450 449
f 440 431 439
f 441 430 440
f 442 432 441
f 443 433 442
f 443 444 452
f 444 445 455
f 452 434 443
f 453 435 452
f 454 436 453
f 449 446 454
f 446 449 450
f 447 455 445
f 451 456 447
f 456 451 448
f 454 448 449
f 455 452 444
f 452 455 453
f 453 456 454
f 455 447 456
f 448 454 456
f 456 453 455
